<?xml version="1.0" encoding="UTF-8" standalone="no"?>
<!DOCTYPE svg PUBLIC "-//W3C//DTD SVG 1.1//EN" "http://www.w3.org/Graphics/SVG/1.1/DTD/svg11.dtd">
<svg width="100%" height="100%" viewBox="0 0 1024 1024" version="1.1" xmlns="http://www.w3.org/2000/svg" xmlns:xlink="http://www.w3.org/1999/xlink" xml:space="preserve" xmlns:serif="http://www.serif.com/" style="fill-rule:evenodd;clip-rule:evenodd;stroke-linejoin:round;stroke-miterlimit:2;">
    <g transform="matrix(2.305331,0,0,2.305331,-551.990451,-695.858003)">
        <g transform="matrix(415.707251,0,0,415.707251,300,679)">
            <path d="M0.407,0.014C0.587,0.014 0.686,-0.101 0.738,-0.23C0.751,-0.262 0.75,-0.288 0.736,-0.295C0.713,-0.306 0.699,-0.29 0.675,-0.256C0.63,-0.192 0.559,-0.142 0.465,-0.142C0.353,-0.142 0.25,-0.196 0.216,-0.275C0.184,-0.349 0.231,-0.349 0.274,-0.352C0.385,-0.358 0.427,-0.339 0.449,-0.299C0.47,-0.26 0.497,-0.231 0.534,-0.242C0.564,-0.251 0.57,-0.309 0.56,-0.391C0.552,-0.457 0.523,-0.519 0.47,-0.519C0.407,-0.519 0.439,-0.434 0.264,-0.448C0.21,-0.452 0.175,-0.453 0.195,-0.524C0.223,-0.604 0.291,-0.66 0.38,-0.66C0.472,-0.66 0.533,-0.61 0.585,-0.527C0.62,-0.471 0.654,-0.474 0.677,-0.504C0.696,-0.529 0.715,-0.664 0.713,-0.695C0.71,-0.738 0.687,-0.74 0.621,-0.73C0.552,-0.72 0.529,-0.76 0.407,-0.76C0.204,-0.76 0.03,-0.586 0.03,-0.373C0.03,-0.16 0.194,0.014 0.407,0.014Z" style="fill:white;fill-rule:nonzero;"/>
        </g>
    </g>
</svg>
